<svg width="60" height="60" viewBox="0 0 60 60" fill="none" xmlns="http://www.w3.org/2000/svg">
<rect width="60" height="60" rx="30" fill="#F9F9F9"/>
<path d="M30.21 23.5415L33.4383 20.3132L39.6833 26.5582L36.455 29.7882L30.21 23.5415ZM44.5167 19.3832L40.6167 15.4832C40.3044 15.1728 39.882 14.9985 39.4417 14.9985C39.0014 14.9985 38.5789 15.1728 38.2667 15.4832L35.2167 18.5332L41.4667 24.7832L44.5167 21.6665C44.8073 21.3574 44.9691 20.9491 44.9691 20.5249C44.9691 20.1006 44.8073 19.6923 44.5167 19.3832ZM13.3333 18.3332L24.3833 29.3832L15 38.7499V44.9999H21.25L30.6333 35.6332L40 44.9999L43.3333 41.6665L16.6667 14.9999L13.3333 18.3332Z" fill="black"/>
</svg>
