<svg width="60" height="61" viewBox="0 0 60 61" fill="none" xmlns="http://www.w3.org/2000/svg">
<rect y="0.5" width="60" height="60" rx="30" fill="#F9F9F9"/>
<path d="M41.4167 27.8167L43.1833 26.05C44.4833 24.75 44.4833 22.6333 43.1833 21.3333L40.8333 18.9833C39.5333 17.6833 37.4167 17.6833 36.1167 18.9833L34.35 20.75L41.4167 27.8167ZM31.9833 23.1L16.6667 38.4333V45.5H23.7333L39.05 30.1833L31.9833 23.1ZM41.6667 39.6667C41.6667 43.3167 37.4333 45.5 33.3333 45.5C32.4167 45.5 31.6667 44.75 31.6667 43.8333C31.6667 42.9167 32.4167 42.1667 33.3333 42.1667C35.9 42.1667 38.3333 40.95 38.3333 39.6667C38.3333 38.8833 37.5333 38.2167 36.2833 37.6667L38.75 35.2C40.5333 36.25 41.6667 37.65 41.6667 39.6667ZM17.6333 32.75C16.0167 31.8167 15 30.6 15 28.8333C15 25.8333 18.15 24.45 20.9333 23.2333C22.65 22.4667 25 21.4333 25 20.5C25 19.8167 23.7 18.8333 21.6667 18.8333C19.5667 18.8333 18.6667 19.85 18.6167 19.9C18.0333 20.5833 16.9833 20.6667 16.2833 20.1C15.6 19.5333 15.4667 18.5167 16.0333 17.8C16.2167 17.5667 17.9333 15.5 21.6667 15.5C25.4 15.5 28.3333 17.7 28.3333 20.5C28.3333 23.6167 25.1167 25.0333 22.2667 26.2833C20.7 26.9667 18.3333 28 18.3333 28.8333C18.3333 29.35 19.05 29.8333 20.1167 30.2667L17.6333 32.75Z" fill="black"/>
</svg>
