<svg width="60" height="60" viewBox="0 0 60 60" fill="none" xmlns="http://www.w3.org/2000/svg">
<rect width="60" height="60" rx="30" fill="#F9F9F9"/>
<path d="M43.3333 35.8333C41.25 35.8333 39.25 35.5 37.3833 34.8833C36.8 34.7 36.15 34.8333 35.6833 35.2833L32.0167 38.95C27.3 36.55 23.4333 32.7 21.0333 27.9667L24.7 24.2833C25.1667 23.85 25.3 23.2 25.1167 22.6167C24.5 20.75 24.1667 18.75 24.1667 16.6667C24.1667 15.75 23.4167 15 22.5 15H16.6667C15.75 15 15 15.75 15 16.6667C15 32.3167 27.6833 45 43.3333 45C44.25 45 45 44.25 45 43.3333V37.5C45 36.5833 44.25 35.8333 43.3333 35.8333ZM41.6667 30H45C45 21.7167 38.2833 15 30 15V18.3333C36.45 18.3333 41.6667 23.55 41.6667 30ZM35 30H38.3333C38.3333 25.4 34.6 21.6667 30 21.6667V25C32.7667 25 35 27.2333 35 30Z" fill="black"/>
</svg>
