<svg width="32" height="32" viewBox="0 0 32 32" fill="none" xmlns="http://www.w3.org/2000/svg">
<path d="M28.92 21.8267L30.44 20.4933L29.1067 18.1867L27.1733 18.84C26.7467 18.48 26.2667 18.2 25.7333 18L25.3333 16H22.6667L22.2667 17.9867C21.7333 18.1867 21.2533 18.4667 20.8267 18.8267L18.8933 18.1733L17.56 20.48L19.08 21.8133C18.9733 22.48 18.9733 22.8267 19.08 23.4933L17.56 24.8267L18.8933 27.1333L20.8267 26.48C21.2533 26.84 21.7333 27.12 22.2667 27.32L22.6667 29.3333H25.3333L25.7333 27.3467C26.2667 27.1467 26.7467 26.8667 27.1733 26.5067L29.1067 27.16L30.44 24.8533L28.92 23.52C29.0267 22.84 29.0267 22.4933 28.92 21.8267ZM24 25.3333C22.5333 25.3333 21.3333 24.1333 21.3333 22.6667C21.3333 21.2 22.5333 20 24 20C25.4667 20 26.6667 21.2 26.6667 22.6667C26.6667 24.1333 25.4667 25.3333 24 25.3333ZM25.3333 5.33333V13.3333H22.6667V8H20V16H17.3333V6.66667H9.33333V25.3333H16V28H4V25.3333H6.66667V4H20V5.33333H25.3333ZM16 17.3333H13.3333V14.6667H16V17.3333Z" fill="#1B2720"/>
</svg>
