<svg width="32" height="32" viewBox="0 0 32 32" fill="none" xmlns="http://www.w3.org/2000/svg">
<path d="M12.9067 18.2534L16 15.9067L19.08 18.2534L17.9067 14.4534L21 12H17.2133L16 8.25335L14.7867 12H11L14.08 14.4534L12.9067 18.2534ZM26.6667 13.3334C26.6667 7.44002 21.8933 2.66669 16 2.66669C10.1067 2.66669 5.33333 7.44002 5.33333 13.3334C5.33333 16.04 6.34667 18.4934 8 20.3734V30.6667L16 28L24 30.6667V20.3734C25.6533 18.4934 26.6667 16.04 26.6667 13.3334ZM16 5.33335C20.4133 5.33335 24 8.92002 24 13.3334C24 17.7467 20.4133 21.3334 16 21.3334C11.5867 21.3334 8 17.7467 8 13.3334C8 8.92002 11.5867 5.33335 16 5.33335ZM16 25.3334L10.6667 26.6934V22.56C12.24 23.4667 14.0533 24 16 24C17.9467 24 19.76 23.4667 21.3333 22.56V26.6934L16 25.3334Z" fill="#1B2720"/>
</svg>
