<svg width="260" height="50" viewBox="0 0 260 50" fill="none" xmlns="http://www.w3.org/2000/svg">
<path fill-rule="evenodd" clip-rule="evenodd" d="M144.718 26.8895V23.4874H132.572V20.0655C132.572 18.6769 134.102 17.9627 135.323 17.9528H145.672L147.519 14.5606H135.323C132.582 14.5606 129.196 16.1674 129.166 19.2819V30.7479C129.166 33.8723 132.582 35.4592 135.323 35.4791H147.509L145.701 32.077H135.323C134.102 32.077 132.572 31.343 132.572 29.9643V26.8895H144.718ZM118.351 35.4394V17.9528H126.564V14.5606H106.85V17.9528H114.954V35.4394H118.351ZM161.055 35.4394V17.9528H169.268V14.5606H149.505V17.9528H157.609V35.4394H161.055ZM103.732 17.9528V14.5606H90.8212C88.2689 14.5606 84.6738 15.6417 84.6738 18.7562V22.7237C84.7496 23.2361 84.9805 23.7132 85.3355 24.0908C85.6905 24.4684 86.1527 24.7286 86.6601 24.8363L100.564 28.3971C100.872 28.4765 101.219 28.7245 101.219 29.0617V29.9544C101.219 31.343 99.7693 32.0671 98.5378 32.0671H84.7036V35.4692H98.5577C101.249 35.4692 104.516 34.031 104.516 30.9363V27.4053C104.464 26.8966 104.254 26.4169 103.916 26.0329C103.578 25.6489 103.128 25.3798 102.629 25.2628L88.7257 21.7318C88.5577 21.7008 88.4041 21.6165 88.2878 21.4914C88.1715 21.3664 88.0987 21.2072 88.0802 21.0375V19.8373C88.0802 18.4487 89.7189 17.9131 90.861 17.9131L103.732 17.9528ZM79.2315 26.8796V23.4874H67.0856V20.0655C67.0856 18.6769 68.615 17.9627 69.8365 17.9528H80.1849L82.0321 14.5606H69.8365C67.0955 14.5606 63.7089 16.1674 63.6791 19.2819V30.7479C63.6791 33.8723 67.0955 35.4592 69.8365 35.4791H82.0222L80.2147 32.0373H69.8365C68.615 32.0373 67.0856 31.3033 67.0856 29.9246V26.8895L79.2315 26.8796Z" fill="#494948"/>
<path fill-rule="evenodd" clip-rule="evenodd" d="M199.697 23.17H200.691L200.82 21.8707H204.604V23.17H205.597L205.765 20.7994H204.991V16.4749H200.81V17.1395C200.88 18.3891 200.674 19.639 200.204 20.7994H199.618V23.17H199.697ZM201.435 33.5152H202.687V29.1807H204.425V28.1194H199.697V29.1807H201.435V33.5152ZM207.891 33.6342C208.31 33.6505 208.727 33.5695 209.11 33.3973C209.493 33.2252 209.83 32.9668 210.096 32.6423L209.371 31.9976C209.185 32.2001 208.96 32.3619 208.708 32.4729C208.457 32.5839 208.185 32.6416 207.911 32.6423C207.524 32.6591 207.146 32.526 206.856 32.2709C206.565 32.0159 206.384 31.6585 206.351 31.2736H210.324C210.324 31.214 210.324 31.0058 210.324 30.9264C210.364 30.5621 210.328 30.1934 210.216 29.8443C210.104 29.4952 209.92 29.1736 209.675 28.9003C209.431 28.6271 209.131 28.4083 208.796 28.2584C208.462 28.1085 208.099 28.0307 207.732 28.0302C207.012 28.0868 206.342 28.4167 205.859 28.952C205.375 29.4873 205.116 30.1873 205.134 30.9079C205.152 31.6284 205.445 32.3148 205.955 32.8256C206.464 33.3364 207.15 33.6329 207.871 33.654L207.891 33.6342ZM206.341 30.4404C206.349 30.0699 206.498 29.7164 206.759 29.4526C207.019 29.1887 207.371 29.0346 207.742 29.022C207.925 29.0246 208.106 29.0634 208.275 29.1362C208.443 29.209 208.595 29.3144 208.723 29.4462C208.85 29.5781 208.95 29.7338 209.017 29.9044C209.084 30.075 209.116 30.2572 209.112 30.4404H206.341ZM211.118 33.5152H212.439L213.76 31.6207L215.091 33.5152H216.442L214.455 30.7479L216.372 28.1194H215.051L213.8 29.8949L212.529 28.1194H211.178L213.105 30.7479L211.118 33.4854V33.5152ZM217.524 33.5152H218.765V31.3331H221.149V33.5152H222.39V28.1194H221.149V30.3015H218.765V28.1194H217.494V33.5152H217.524ZM226.512 33.6342C227.068 33.6264 227.61 33.4543 228.069 33.1396C228.528 32.8249 228.883 32.3817 229.09 31.8658C229.297 31.3498 229.347 30.7842 229.233 30.2402C229.119 29.6961 228.846 29.198 228.449 28.8084C228.052 28.4188 227.548 28.1552 227.002 28.0508C226.455 27.9464 225.89 28.0059 225.377 28.2217C224.864 28.4375 224.427 28.8001 224.12 29.2637C223.813 29.7274 223.65 30.2714 223.652 30.8272C223.649 31.2008 223.721 31.5711 223.865 31.9162C224.008 32.2613 224.219 32.5741 224.486 32.8359C224.753 33.0978 225.07 33.3034 225.418 33.4405C225.766 33.5776 226.138 33.6435 226.512 33.6342ZM226.512 32.563C226.288 32.5605 226.068 32.5133 225.863 32.424C225.658 32.3348 225.474 32.2054 225.32 32.0435C225.166 31.8816 225.046 31.6906 224.968 31.4816C224.89 31.2727 224.854 31.0502 224.863 30.8272C224.848 30.6046 224.879 30.3813 224.954 30.1712C225.03 29.961 225.147 29.7686 225.3 29.6058C225.453 29.443 225.637 29.3133 225.842 29.2248C226.047 29.1363 226.269 29.0909 226.492 29.0914C226.716 29.0926 226.938 29.1389 227.144 29.2275C227.35 29.3161 227.536 29.4453 227.691 29.6074C227.845 29.7694 227.966 29.9609 228.045 30.1705C228.124 30.3801 228.16 30.6034 228.151 30.8272C228.164 31.0503 228.132 31.2739 228.055 31.484C227.979 31.6942 227.861 31.8865 227.707 32.0491C227.554 32.2118 227.368 32.3413 227.163 32.4296C226.957 32.518 226.736 32.5634 226.512 32.563ZM230.604 33.5548C231.805 33.5548 232.54 33.0788 232.54 29.1609H234.228V33.4953H235.47V28.1194H231.398C231.398 32.2257 230.971 32.5332 230.345 32.5332C230.226 32.5435 230.107 32.5435 229.988 32.5332L229.888 33.5251C230.128 33.563 230.371 33.5862 230.613 33.5945L230.604 33.5548ZM239.591 33.6144C240.148 33.6065 240.69 33.4344 241.148 33.1197C241.607 32.8051 241.962 32.3619 242.169 31.8459C242.377 31.33 242.426 30.7644 242.312 30.2203C242.198 29.6763 241.925 29.1781 241.528 28.7885C241.131 28.3989 240.628 28.1354 240.081 28.031C239.535 27.9266 238.969 27.986 238.456 28.2019C237.943 28.4177 237.506 28.7803 237.199 29.2439C236.892 29.7075 236.729 30.2515 236.731 30.8074C236.728 31.181 236.801 31.5513 236.944 31.8964C237.088 32.2415 237.299 32.5542 237.566 32.8161C237.833 33.0779 238.149 33.2835 238.497 33.4207C238.845 33.5578 239.217 33.6237 239.591 33.6144ZM239.591 32.5431C239.368 32.5393 239.148 32.4912 238.944 32.4015C238.74 32.3118 238.556 32.1823 238.402 32.0207C238.249 31.8591 238.129 31.6686 238.05 31.4603C237.971 31.2519 237.935 31.03 237.943 30.8074C237.928 30.5848 237.959 30.3615 238.034 30.1513C238.109 29.9412 238.227 29.7488 238.379 29.586C238.532 29.4232 238.717 29.2935 238.922 29.205C239.127 29.1165 239.348 29.0711 239.571 29.0716C239.796 29.0727 240.017 29.119 240.223 29.2077C240.429 29.2963 240.615 29.4255 240.77 29.5875C240.925 29.7495 241.045 29.9411 241.124 30.1507C241.203 30.3603 241.239 30.5836 241.23 30.8074C241.244 31.0305 241.211 31.254 241.135 31.4642C241.059 31.6743 240.94 31.8666 240.787 32.0293C240.633 32.1919 240.448 32.3214 240.242 32.4098C240.037 32.4982 239.815 32.5436 239.591 32.5431ZM243.733 33.535H244.964V29.1807H247.556V28.1194H243.733V33.5152V33.535ZM248.539 33.535H249.711L252.273 29.9345V33.535H253.475V28.1194H252.303C251.449 29.3163 250.598 30.523 249.751 31.7397V28.1194H248.579V33.5152L248.539 33.535ZM255.024 33.535H256.226L258.798 29.9345V33.535H259.99V28.1194H258.828C257.964 29.3196 257.12 30.5297 256.266 31.7397V28.1194H255.054V33.5152L255.024 33.535ZM201.604 20.8292C201.952 20.0251 202.121 19.1556 202.101 18.2801V17.566H203.888V20.8292H201.604ZM206.927 21.9004H209.728C210.96 21.9004 211.714 21.345 211.714 20.4325C211.729 20.0974 211.617 19.7691 211.399 19.5134C211.182 19.2576 210.876 19.0935 210.542 19.0538C210.799 18.9673 211.021 18.8013 211.176 18.5801C211.332 18.3589 211.412 18.094 211.406 17.8238C211.406 16.9907 210.701 16.4749 209.629 16.4749H206.858V21.8707L206.927 21.9004ZM208.139 20.9085V19.5398H209.48C210.145 19.5398 210.473 19.8076 210.473 20.1944C210.473 20.5812 210.155 20.8887 209.549 20.8887L208.139 20.9085ZM208.139 18.7165V17.4172H209.43C209.986 17.4172 210.215 17.685 210.215 18.0321C210.215 18.3793 209.937 18.6967 209.41 18.6967L208.139 18.7165ZM215.439 22.0095C215.859 22.0251 216.278 21.9438 216.662 21.7717C217.046 21.5997 217.385 21.3417 217.653 21.0177L216.918 20.3729C216.733 20.5754 216.507 20.7372 216.256 20.8482C216.005 20.9592 215.733 21.0169 215.458 21.0177C215.073 21.032 214.696 20.898 214.406 20.6434C214.116 20.3888 213.934 20.0329 213.899 19.6489H217.872C217.872 19.5894 217.872 19.3811 217.872 19.3017C217.914 18.9375 217.878 18.5686 217.768 18.219C217.657 17.8694 217.474 17.5469 217.23 17.2727C216.987 16.9985 216.688 16.7787 216.354 16.6275C216.019 16.4764 215.657 16.3973 215.29 16.3956C214.929 16.4004 214.573 16.4779 214.243 16.6235C213.913 16.769 213.615 16.9796 213.369 17.2426C213.122 17.5057 212.931 17.8157 212.807 18.1542C212.683 18.4926 212.629 18.8526 212.648 19.2125C212.63 19.5829 212.689 19.9531 212.821 20.2997C212.953 20.6463 213.156 20.9618 213.416 21.2264C213.676 21.491 213.989 21.6989 214.333 21.8371C214.678 21.9753 215.047 22.0407 215.419 22.0294L215.439 22.0095ZM213.889 18.8058C213.901 18.4352 214.054 18.083 214.315 17.8199C214.577 17.5567 214.929 17.4023 215.299 17.3874C215.668 17.3978 216.018 17.5521 216.275 17.8173C216.531 18.0824 216.673 18.4373 216.67 18.8058H213.889ZM219.143 23.5271H220.384V21.0276C220.582 21.3315 220.853 21.5814 221.172 21.7546C221.491 21.9278 221.848 22.0188 222.212 22.0194C222.564 22.0111 222.912 21.931 223.232 21.7839C223.553 21.6368 223.84 21.4258 224.077 21.1639C224.313 20.9021 224.493 20.5948 224.606 20.2609C224.719 19.9271 224.763 19.5737 224.734 19.2224C224.765 18.869 224.724 18.513 224.612 18.1762C224.501 17.8395 224.321 17.5291 224.085 17.2643C223.848 16.9995 223.56 16.7858 223.238 16.6364C222.916 16.487 222.567 16.405 222.212 16.3956C221.848 16.3953 221.491 16.4859 221.172 16.6592C220.852 16.8325 220.582 17.0828 220.384 17.3874V16.4947H219.143V23.5072V23.5271ZM221.924 20.9284C221.706 20.9222 221.491 20.8721 221.293 20.7812C221.095 20.6903 220.918 20.5603 220.771 20.3991C220.625 20.238 220.512 20.0489 220.441 19.8433C220.369 19.6377 220.34 19.4197 220.354 19.2025C220.338 18.9835 220.366 18.7636 220.437 18.5556C220.508 18.3477 220.62 18.1562 220.766 17.9924C220.913 17.8286 221.091 17.6958 221.289 17.6021C221.488 17.5084 221.704 17.4557 221.924 17.4469C222.138 17.4556 222.349 17.5074 222.543 17.5991C222.737 17.6908 222.91 17.8206 223.053 17.9807C223.196 18.1409 223.305 18.3281 223.373 18.5312C223.442 18.7342 223.469 18.9491 223.453 19.1629C223.475 19.3809 223.452 19.6011 223.384 19.8097C223.317 20.0182 223.207 20.2105 223.061 20.3745C222.916 20.5385 222.738 20.6706 222.538 20.7626C222.339 20.8545 222.123 20.9042 221.904 20.9085L221.924 20.9284ZM226.005 21.9203H227.237V19.7381H229.62V21.9203H230.862V16.4749H229.62V18.657H227.237V16.4749H226.005V21.8707V21.9203ZM232.421 21.9203H234.884C236.155 21.9203 236.94 21.2359 236.94 20.1151C236.94 18.9942 236.006 18.409 234.795 18.409H233.652V16.5245H232.391V21.9203H232.421ZM233.652 20.9284V19.3216H234.705C235.331 19.3216 235.698 19.5894 235.698 20.0655C235.698 20.5416 235.331 20.8689 234.705 20.8689L233.652 20.9284ZM237.764 21.9203H238.995V16.4749H237.764V21.8707V21.9203ZM243.028 22.0393C243.448 22.0549 243.867 21.9735 244.251 21.8015C244.635 21.6295 244.974 21.3715 245.242 21.0474L244.517 20.4027C244.331 20.6064 244.103 20.7689 243.85 20.88C243.597 20.991 243.324 21.048 243.047 21.0474C242.663 21.0615 242.287 20.9273 241.999 20.6725C241.71 20.4177 241.531 20.0618 241.498 19.6786H245.471C245.471 19.6191 245.471 19.4108 245.471 19.3315C245.513 18.9664 245.477 18.5967 245.366 18.2464C245.255 17.8961 245.071 17.5732 244.826 17.2988C244.581 17.0244 244.281 16.8048 243.946 16.6542C243.61 16.5037 243.246 16.4257 242.879 16.4253C242.518 16.4302 242.162 16.5077 241.832 16.6532C241.502 16.7988 241.204 17.0094 240.958 17.2724C240.711 17.5354 240.52 17.8454 240.396 18.1839C240.272 18.5224 240.218 18.8823 240.237 19.2422C240.22 19.6123 240.28 19.9818 240.413 20.3278C240.546 20.6737 240.749 20.9886 241.008 21.2529C241.268 21.5171 241.58 21.7251 241.924 21.8638C242.268 22.0025 242.637 22.069 243.008 22.0591L243.028 22.0393ZM241.488 18.8355C241.498 18.4658 241.648 18.1137 241.908 17.8503C242.168 17.587 242.518 17.4321 242.888 17.4172C243.258 17.425 243.61 17.5785 243.866 17.8442C244.123 18.11 244.264 18.4663 244.259 18.8355H241.488Z" fill="#494948"/>
<path fill-rule="evenodd" clip-rule="evenodd" d="M50.0634 50V0H0V50H50.0634ZM12.4637 11.9024H37.5898L34.2131 18.1214H12.4637V11.9024ZM32.495 21.9698V28.1889H12.4637V21.9698H32.495ZM12.4637 31.8885H34.3125L37.6295 38.1174H12.4637V31.8389V31.8885ZM43.8266 6.219V43.7711H6.22689V6.219H43.8266Z" fill="url(#paint0_linear_3_2)"/>
<path d="M187.611 6.21899H186.39V43.7711H187.611V6.21899Z" fill="#494948"/>
<defs>
<linearGradient id="paint0_linear_3_2" x1="33.7464" y1="59.2839" x2="20.0639" y2="5.32797" gradientUnits="userSpaceOnUse">
<stop stop-color="#006549"/>
<stop offset="1" stop-color="#32A934"/>
</linearGradient>
</defs>
</svg>
